<?xml version="1.0" encoding="utf-8"?>
<!-- Generator: Adobe Illustrator 27.0.1, SVG Export Plug-In . SVG Version: 6.00 Build 0)  -->
<svg version="1.1"
	 id="svg4" xmlns:svg="http://www.w3.org/2000/svg" xmlns:inkscape="http://www.inkscape.org/namespaces/inkscape" xmlns:sodipodi="http://sodipodi.sourceforge.net/DTD/sodipodi-0.dtd" sodipodi:docname="a4434c2f6c51078f8257e063ba5cf3a7.svg"
	 xmlns="http://www.w3.org/2000/svg" xmlns:xlink="http://www.w3.org/1999/xlink" x="0px" y="0px" viewBox="0 0 2494.8 472.1"
	 style="enable-background:new 0 0 2494.8 472.1;" xml:space="preserve">
<style type="text/css">
	.st0{fill:#FFFFFF;}
</style>
<sodipodi:namedview  bordercolor="#666666" borderopacity="1.0" id="namedview6" inkscape:pagecheckerboard="0" inkscape:pageopacity="0.0" inkscape:pageshadow="2" pagecolor="#ffffff">
	</sodipodi:namedview>
<path id="path2" class="st0" d="M2120.6,346.5c-20.8-5.2-26-15.6-28.6-36.4c-5.2-33.8-5.2-116.9,0-153.3c2.6-18.2,13-28.6,28.6-33.8
	c18.2-5.2,184.5-7.8,202.7,0c15.6,5.2,20.8,15.6,23.4,31.2c7.8,33.8,7.8,119.5,0,153.3c-2.6,15.6-7.8,23.4-23.4,31.2
	C2307.7,351.7,2144,351.7,2120.6,346.5L2120.6,346.5z M2377.9,8.7c-49.4-10.4-239.1-13-314.4,0c-57.2,10.4-101.3,52-114.4,104
	c-10.4,59.8-10.4,192.3,0,246.9c10.4,49.4,52,93.5,114.4,103.9c65,13,257.3,10.4,317-2.6c70.2-15.6,98.8-67.6,106.6-101.4
	c10.4-52,10.4-184.5,0-246.9C2474,58.1,2427.2,19.1,2377.9,8.7L2377.9,8.7z M1725.6,11.3h142.9v449.6h-142.9V11.3z M1496.9,289.4
	c23.4,5.2,28.6,23.4,28.6,39c0,15.6-2.6,33.8-28.6,36.4c-28.6,5.2-124.7,5.2-161.1,0c-15.6-2.6-33.8-2.6-39-31.2v-7.8h-142.9
	c0,2.6,0,10.4,2.6,20.8c5.2,59.8,28.6,101.3,96.2,114.3c54.6,10.4,259.9,13,322.2,0c72.8-15.6,91-80.6,91-137.7
	c0-65-23.4-109.1-80.6-127.3c-15.6-5.2-52-7.8-67.6-7.8c-13,0-166.3-5.2-200.1-10.4c-20.8-2.6-26-15.6-26-33.8s2.6-31.2,28.6-36.4
	c31.2-5.2,153.3-5.2,166.3,0c15.6,5.2,20.8,15.6,20.8,28.6v10.4h142.9c0-10.4-2.6-18.2-2.6-26c-7.8-70.2-46.8-109.2-117-114.4
	c-70.2-7.8-231.3-5.2-280.7,2.6c-46.8,10.4-93.6,39-93.6,135.1c0,78,36.4,116.9,98.8,129.9c18.2,2.6,70.2,5.2,78,5.2
	C1351.4,281.6,1486.5,286.8,1496.9,289.4L1496.9,289.4z M933,286.8H774.4L842,107.4h23.4L933,286.8z M964.1,380.3l31.2,80.6h153.3
	L956.3,8.7H748.4L558.7,460.9h153.3l31.2-83.2L964.1,380.3z M148.1,312.8c2.6,26,15.6,31.2,28.6,33.8c20.8,5.2,168.9,5.2,194.9,0
	c18.2-2.6,31.2-15.6,33.8-31.2c0-7.8,2.6-20.8,2.6-26h148.1c0,10.4,0,36.4-2.6,59.8c-7.8,54.6-39,98.7-106.5,114.3
	c-46.8,10.4-272.9,10.4-324.8,0c-54.6-13-101.4-46.8-114.4-104c-10.4-52-10.4-187.1,0-244.3c7.8-41.6,46.8-91,111.8-104
	c59.8-10.4,270.3-13,327.4,0c75.4,18.2,98.7,85.8,101.3,109.2c2.6,26,2.6,44.2,2.6,54.6H402.8c0-10.4,2.6-39-23.4-46.8
	c-15.6-5.2-161.1-5.2-197.5-2.6c-18.2,2.6-28.6,10.4-31.2,28.6C142.9,190.6,142.9,279,148.1,312.8L148.1,312.8z"/>
</svg>
